<svg width="680" viewBox="0 0 680 520" xmlns="http://www.w3.org/2000/svg" style="background:#0d1117;font-family:'Segoe UI',system-ui,sans-serif;">
<defs>
  <marker id="arrow" viewBox="0 0 10 10" refX="8" refY="5" markerWidth="6" markerHeight="6" orient="auto-start-reverse">
    <path d="M2 1L8 5L2 9" fill="none" stroke="context-stroke" stroke-width="1.5" stroke-linecap="round" stroke-linejoin="round"/>
  </marker>
</defs>

<!-- Background circles -->
<circle cx="340" cy="260" r="180" fill="none" stroke="#ffffff12" stroke-width="0.5" stroke-dasharray="3 6"/>
<circle cx="340" cy="260" r="140" fill="none" stroke="#ffffff09" stroke-width="0.3" stroke-dasharray="2 8"/>

<!-- ═══ REACT FRONTEND ═══ -->
<rect x="80" y="28" width="520" height="72" rx="12" fill="#04342C" stroke="#1D9E75" stroke-width="0.8"/>
<text font-size="14" font-weight="600" fill="#9FE1CB" x="340" y="55" text-anchor="middle" dominant-baseline="central">React 18 — Interface utilisateur</text>
<text font-size="12" fill="#5DCAA5" x="340" y="76" text-anchor="middle" dominant-baseline="central">Dashboard · Prédiction · Projets · Extraction · Modèle IA</text>

<!-- React atom badge -->
<circle cx="110" cy="64" r="14" fill="none" stroke="#1D9E75" stroke-width="1"/>
<circle cx="110" cy="64" r="4" fill="#1D9E75"/>
<ellipse cx="110" cy="64" rx="14" ry="5.5" fill="none" stroke="#1D9E75" stroke-width="1" transform="rotate(60 110 64)"/>
<ellipse cx="110" cy="64" rx="14" ry="5.5" fill="none" stroke="#1D9E75" stroke-width="1" transform="rotate(-60 110 64)"/>
<text font-size="11" fill="#9FE1CB" x="600" y="67" text-anchor="start">:3000</text>

<!-- Arrows HTTP bridge -->
<line x1="260" y1="100" x2="260" y2="148" stroke="#1D9E75" stroke-width="1.5" marker-end="url(#arrow)"/>
<line x1="420" y1="148" x2="420" y2="100" stroke="#1D9E75" stroke-width="1.5" marker-end="url(#arrow)"/>
<text font-size="11" fill="#5DCAA5" x="218" y="130" text-anchor="middle">Requête</text>
<text font-size="11" fill="#5DCAA5" x="462" y="130" text-anchor="middle">Réponse</text>

<!-- HTTP Bridge -->
<rect x="130" y="148" width="420" height="44" rx="8" fill="#2C2C2A" stroke="#5F5E5A" stroke-width="0.5"/>
<text font-size="14" font-weight="600" fill="#D3D1C7" x="260" y="168" text-anchor="middle" dominant-baseline="central">HTTP / JSON · axios</text>
<text font-size="12" fill="#B4B2A9" x="420" y="180" text-anchor="middle" dominant-baseline="central">POST · GET · predictions · projets</text>

<!-- Arrows to FastAPI -->
<line x1="260" y1="192" x2="260" y2="226" stroke="#378ADD" stroke-width="1.5" marker-end="url(#arrow)"/>
<line x1="420" y1="226" x2="420" y2="192" stroke="#378ADD" stroke-width="1.5" marker-end="url(#arrow)"/>

<!-- ═══ FASTAPI BACKEND ═══ -->
<rect x="80" y="226" width="520" height="72" rx="12" fill="#042C53" stroke="#378ADD" stroke-width="0.8"/>
<text font-size="14" font-weight="600" fill="#B5D4F4" x="340" y="254" text-anchor="middle" dominant-baseline="central">FastAPI — Backend REST</text>
<text font-size="12" fill="#85B7EB" x="340" y="274" text-anchor="middle" dominant-baseline="central">/api/predictions · /api/projets · /api/extraction · /api/modele · :8000/docs</text>

<!-- FastAPI lightning badge -->
<polygon points="570,244 564,264 570,260 564,282 578,258 570,263" fill="#378ADD"/>
<text font-size="11" fill="#85B7EB" x="600" y="267" text-anchor="start">:8000</text>

<!-- Arrows to sub-layers -->
<line x1="220" y1="298" x2="188" y2="340" stroke="#5F5E5A" stroke-width="1" marker-end="url(#arrow)"/>
<line x1="340" y1="298" x2="340" y2="340" stroke="#5F5E5A" stroke-width="1" marker-end="url(#arrow)"/>
<line x1="460" y1="298" x2="492" y2="340" stroke="#5F5E5A" stroke-width="1" marker-end="url(#arrow)"/>

<!-- ML Engine -->
<rect x="82" y="340" width="160" height="64" rx="10" fill="#26215C" stroke="#534AB7" stroke-width="0.8"/>
<text font-size="14" font-weight="600" fill="#CECBF6" x="162" y="364" text-anchor="middle" dominant-baseline="central">Moteur ML</text>
<text font-size="12" fill="#AFA9EC" x="162" y="383" text-anchor="middle" dominant-baseline="central">GBM · XGBoost · EN 378</text>

<!-- SQLite -->
<rect x="260" y="340" width="160" height="64" rx="10" fill="#412402" stroke="#BA7517" stroke-width="0.8"/>
<text font-size="14" font-weight="600" fill="#FAC775" x="340" y="364" text-anchor="middle" dominant-baseline="central">SQLite</text>
<text font-size="12" fill="#EF9F27" x="340" y="383" text-anchor="middle" dominant-baseline="central">Projets · corrections · modèle</text>

<!-- Extracteur -->
<rect x="438" y="340" width="160" height="64" rx="10" fill="#4A1B0C" stroke="#993C1D" stroke-width="0.8"/>
<text font-size="14" font-weight="600" fill="#F5C4B3" x="518" y="364" text-anchor="middle" dominant-baseline="central">Extracteur</text>
<text font-size="12" fill="#F0997B" x="518" y="383" text-anchor="middle" dominant-baseline="central">PDF · Excel · Web · Texte</text>

<!-- Arrows to self-learning -->
<line x1="162" y1="404" x2="162" y2="440" stroke="#5F5E5A" stroke-width="1" marker-end="url(#arrow)"/>
<line x1="340" y1="404" x2="340" y2="440" stroke="#5F5E5A" stroke-width="1" marker-end="url(#arrow)"/>
<line x1="518" y1="404" x2="518" y2="440" stroke="#5F5E5A" stroke-width="1" marker-end="url(#arrow)"/>

<!-- ═══ SELF-LEARNING ═══ -->
<rect x="80" y="440" width="520" height="56" rx="12" fill="#173404" stroke="#3B6D11" stroke-width="0.8"/>
<text font-size="14" font-weight="600" fill="#C0DD97" x="340" y="462" text-anchor="middle" dominant-baseline="central">Self-Learning — Boucle de ré-entraînement</text>
<text font-size="12" fill="#97C459" x="340" y="480" text-anchor="middle" dominant-baseline="central">Validation · Corrections utilisateur · Ré-entraînement automatique</text>

<!-- Feedback loop arrow -->
<path d="M80 468 Q30 468 30 372 Q30 340 82 362" fill="none" stroke="#3B6D11" stroke-width="1.5" stroke-dasharray="5 4" marker-end="url(#arrow)"/>

<!-- Snowflake decorators -->
<g opacity="0.35" stroke="#5DCAA5" stroke-width="0.8" stroke-linecap="round" fill="none">
  <line x1="636" y1="120" x2="636" y2="136"/>
  <line x1="628" y1="128" x2="644" y2="128"/>
  <line x1="630" y1="122" x2="642" y2="134"/>
  <line x1="642" y1="122" x2="630" y2="134"/>
</g>
<g opacity="0.25" stroke="#378ADD" stroke-width="0.7" stroke-linecap="round" fill="none">
  <line x1="44" y1="160" x2="44" y2="172"/>
  <line x1="38" y1="166" x2="50" y2="166"/>
  <line x1="40" y1="162" x2="48" y2="170"/>
  <line x1="48" y1="162" x2="40" y2="170"/>
</g>
<g opacity="0.2" stroke="#EF9F27" stroke-width="0.6" stroke-linecap="round" fill="none">
  <line x1="55" y1="450" x2="55" y2="460"/>
  <line x1="50" y1="455" x2="60" y2="455"/>
  <line x1="52" y1="451" x2="58" y2="459"/>
  <line x1="58" y1="451" x2="52" y2="459"/>
</g>
</svg>
